PathFileType	4	(X/Y/Z)	Kaydara	
DataRate	CameraRate	NumFrames	NumMarkers	Units	OrigDataRate	OrigDataStartFrame	OrigNumFrames	
120.00	120.00	4	72	mm	120.00	196	261	
Frame#	Time	Hips			RightUpLeg			RightLeg			RightFoot			RightFoot_End			LeftUpLeg			LeftLeg			LeftFoot			LeftFoot_End			Spine			Spine1			Spine2			Spine3			Neck			Head			Head_End			RightShoulder			RightArm			RightForeArm			RightHand			RightHandThumb1			RightHandThumb2			RightHandThumb3			RightHandThumb3_End			RightInHandIndex			RightHandIndex1			RightHandIndex2			RightHandIndex3			RightHandIndex3_End			RightInHandMiddle			RightHandMiddle1			RightHandMiddle2			RightHandMiddle3			RightHandMiddle3_End			RightInHandRing			RightHandRing1			RightHandRing2			RightHandRing3			RightHandRing3_End			RightInHandPinky			RightHandPinky1			RightHandPinky2			RightHandPinky3			RightHandPinky3_End			LeftShoulder			LeftArm			LeftForeArm			LeftHand			LeftHandThumb1			LeftHandThumb2			LeftHandThumb3			LeftHandThumb3_End			LeftInHandIndex			LeftHandIndex1			LeftHandIndex2			LeftHandIndex3			LeftHandIndex3_End			LeftInHandMiddle			LeftHandMiddle1			LeftHandMiddle2			LeftHandMiddle3			LeftHandMiddle3_End			LeftInHandRing			LeftHandRing1			LeftHandRing2			LeftHandRing3			LeftHandRing3_End			LeftInHandPinky			LeftHandPinky1			LeftHandPinky2			LeftHandPinky3			LeftHandPinky3_End			
		X1	Y1	Z1	X2	Y2	Z2	X3	Y3	Z3	X4	Y4	Z4	X5	Y5	Z5	X6	Y6	Z6	X7	Y7	Z7	X8	Y8	Z8	X9	Y9	Z9	X10	Y10	Z10	X11	Y11	Z11	X12	Y12	Z12	X13	Y13	Z13	X14	Y14	Z14	X15	Y15	Z15	X16	Y16	Z16	X17	Y17	Z17	X18	Y18	Z18	X19	Y19	Z19	X20	Y20	Z20	X21	Y21	Z21	X22	Y22	Z22	X23	Y23	Z23	X24	Y24	Z24	X25	Y25	Z25	X26	Y26	Z26	X27	Y27	Z27	X28	Y28	Z28	X29	Y29	Z29	X30	Y30	Z30	X31	Y31	Z31	X32	Y32	Z32	X33	Y33	Z33	X34	Y34	Z34	X35	Y35	Z35	X36	Y36	Z36	X37	Y37	Z37	X38	Y38	Z38	X39	Y39	Z39	X40	Y40	Z40	X41	Y41	Z41	X42	Y42	Z42	X43	Y43	Z43	X44	Y44	Z44	X45	Y45	Z45	X46	Y46	Z46	X47	Y47	Z47	X48	Y48	Z48	X49	Y49	Z49	X50	Y50	Z50	X51	Y51	Z51	X52	Y52	Z52	X53	Y53	Z53	X54	Y54	Z54	X55	Y55	Z55	X56	Y56	Z56	X57	Y57	Z57	X58	Y58	Z58	X59	Y59	Z59	X60	Y60	Z60	X61	Y61	Z61	X62	Y62	Z62	X63	Y63	Z63	X64	Y64	Z64	X65	Y65	Z65	X66	Y66	Z66	X67	Y67	Z67	X68	Y68	Z68	X69	Y69	Z69	X70	Y70	Z70	X71	Y71	Z71	X72	Y72	Z72	

196	1.625	2081.203	893.81699	129.612	2106.7033612988353	865.4179637253261	78.55111069867344	2020.6053872268326	459.8213059805595	46.31857619156205	2103.45786689104	119.65745134295095	-70.23837696125031	2028.859395018385	22.736256632197346	68.22570910256934	2066.5447751681254	895.6031833243082	194.77443956172561	1956.9838956548335	506.32344917402435	300.87439549850114	1846.1536733170385	91.42827472584847	387.7171704799836	1703.923368132957	24.160806625644124	282.03723692440803	2036.729679158769	1016.609005054197	71.97700551281298	1984.844702333598	1083.3189866881273	24.280330559548798	1926.311710104906	1147.8747461559062	-26.825854369553205	1864.0996655790022	1201.6628365696147	-77.94576786038425	1796.5343135051412	1259.8319921450648	-130.61448752493507	1730.0165282924822	1309.6842786074587	-173.32908513025896	1590.8814780485409	1386.5431231526443	-179.3477077409962	1823.9164370414794	1234.8044740694495	-125.27917905340817	1838.800809484055	1212.8172688361892	-157.07201842726516	1911.8419891213562	1090.3902306609264	-96.29482608735684	1933.5125083703601	1016.1499815104881	-86.63332998840119	1939.5458660511981	1032.4621471851242	-91.90107764220792	1941.3066204295258	1035.429979658444	-98.03538554785091	1942.6701857356786	1034.1095081976928	-101.2956563399497	1943.924445677483	1030.1109631425813	-103.14815068847709	1941.1894409150111	1022.2656249681476	-88.40187896935382	1950.8433204162916	1017.1021935284858	-88.89420480940062	1954.3694729626302	1011.1088136950195	-91.13822773960926	1953.9485757419463	1009.225197214555	-94.36291853001352	1951.837579252562	1008.9089202251077	-98.26609921948729	1941.075340122329	1013.1184195013591	-85.72355868829692	1950.4306367199094	1003.1351198875678	-84.7545093226784	1954.228013590926	995.4019507748876	-86.85057194921178	1953.6960468814234	992.5568542673781	-90.57182948605572	1951.374483534376	991.9324442432481	-94.76036022586582	1940.7836067862688	1006.7888831987472	-83.79293864315918	1949.0176501421479	992.3508680870978	-81.17301146763963	1952.2608595245993	984.4067513143791	-82.64134549200584	1951.7123553194144	981.0231195400655	-86.04036275393861	1949.5127353987455	980.1330650193134	-89.88839491426224	1939.8901540919956	999.6338787847792	-81.75695151046035	1947.0128906691011	981.9827452751789	-78.01230825654085	1949.469853047054	973.8061964378711	-78.6402498646138	1949.002013490526	970.4600903682793	-80.85449818714676	1947.0145156485025	969.1663066896681	-84.11070912581334	1813.7822867578616	1245.5168082283099	-100.47647842348859	1803.924601714184	1241.7533994765581	-58.221241981850056	1888.6557798681508	1113.4092316555768	-47.34604962370489	1942.7589062813627	1026.3915157474873	-52.52011358594307	1945.2219526955776	1043.3046591371922	-59.36040245099439	1953.2590108003833	1045.0968881661515	-56.832541915669196	1959.8288548145783	1042.9613940967959	-53.7143736854475	1966.138081765874	1038.2865347078862	-49.95335917284329	1948.7583167817033	1033.3708548563657	-55.718402524284365	1962.3021062786167	1028.6989151088471	-52.98164804735473	1972.67255734403	1022.009046772213	-47.88480401614625	1977.7953335474833	1019.081246363001	-44.282204931268176	1981.1420198893484	1017.4884470353891	-41.00766533259454	1950.9777974519511	1024.1671664291619	-51.96901156713172	1965.388252173908	1014.6329919212083	-47.272533607194816	1976.954588342543	1006.1294642996653	-41.22103131171469	1983.2550426716025	1002.019641097153	-36.639568495248845	1986.975266751719	999.9960685792363	-32.94235303155822	1952.1997024685365	1017.7958412604465	-49.41290040184333	1966.1734603729192	1003.7552707791473	-43.05230699385715	1976.487648166804	995.1283119816172	-37.28427992527622	1982.6886309304123	990.5186950116982	-32.603011506446435	1986.2451938459674	988.310203443139	-29.002505011747278	1953.2199250028682	1010.4944091654988	-46.364988133374084	1966.6680798307457	993.1534913055362	-38.728337523210556	1975.2297591712977	984.4105495948154	-33.367146204789016	1979.8990966234237	980.1607233083661	-29.593505543935322	1983.1338362983217	977.6935648037907	-26.197367902645343
197	1.633	2081.203	893.81699	129.612	2104.1059161941193	863.8987539145628	77.96995250008369	2018.6719773909033	458.19915600022347	45.91545382265421	2102.6459459186203	118.77623352356098	-72.22347681217143	2028.2586666699124	21.418363183998384	65.87310772020064	2069.031934651893	897.0681027339078	195.34969291344643	1959.2376918033744	507.72097244557256	300.97943686424446	1848.6614285875607	92.40976099444278	386.64691299008274	1706.4765948219506	24.706975685152692	281.1800023613692	2037.5299993051276	1016.8452517829456	71.7967902017195	1985.9033691489653	1083.813608030397	24.169306857661457	1927.5478925294876	1148.5928694620402	-26.862960735376564	1865.3375251356501	1202.4298631399981	-77.9150749126389	1797.773022984052	1260.6308128637932	-130.52948638390117	1731.3396870659567	1310.5836215409697	-173.24917898702606	1592.2180218536312	1387.4555407363084	-179.19159411294078	1824.8903901636882	1235.2808445240858	-125.17019880912397	1838.5435994806435	1211.9767416248237	-156.44759716275942	1911.9920753260708	1090.4963899324873	-95.3274335751559	1930.7091093631273	1015.7418190626106	-83.36493152757328	1936.6000975534807	1032.0246309957408	-88.23495039553087	1938.4349503708897	1034.997946118955	-93.82542717691044	1939.8440133943764	1033.688169824682	-96.70502629407146	1941.130979199789	1029.7044248976497	-98.2385137998657	1938.181727383724	1021.8484371795097	-84.69931871585261	1947.6175851987296	1016.7038151567784	-84.49053597630035	1951.1361688846914	1010.732266980939	-86.20919718378788	1950.8115825765503	1008.8599543615896	-89.14268475602326	1948.8484424374683	1008.5515124211325	-92.8287302959899	1938.0654574663226	1012.719702120032	-82.03833996318332	1947.206887190471	1002.7647322797194	-80.39484850772183	1950.9966048677402	995.0577697441109	-81.92214635810635	1950.5811234521948	992.2274622947409	-85.29424723938283	1948.42148074216	991.6121788518104	-89.24624720890674	1937.776207393711	1006.4026907268949	-80.13809688423429	1945.8162132667496	992.0008255407845	-76.94076340204153	1949.053709983654	984.0819481949774	-77.919039928124	1948.618085255463	980.7138522184695	-80.98428120334496	1946.5709506245407	979.832978962825	-84.61134279851396	1936.904118637173	999.2618962056075	-78.15562803750528	1943.8568002368243	981.6525513193808	-73.9149250661421	1946.31155819983	973.4997930294543	-74.16181730148281	1945.9271916434163	970.1667476963762	-76.13811353224499	1944.0754322645373	968.8820983860338	-79.20175095534142	1815.2833259981314	1246.6293445004023	-100.4345202249392	1806.375139265624	1244.2344321804023	-58.254955585855306	1889.1242187504374	1114.6809520605902	-45.06631302651426	1940.7421019576766	1026.6980836494997	-49.46447620020565	1943.2442886360725	1043.2084566361339	-56.71031797252161	1951.3839634223214	1044.8270673671734	-54.42331054317083	1957.9959755433533	1042.605204014051	-51.39957137296904	1964.315296977271	1037.8878862827971	-47.654565468925	1946.662916851905	1033.3430544765713	-52.84071684405386	1960.0486025661212	1028.3680823268166	-50.11285838434175	1970.3961739168171	1021.5658672771314	-45.033078115334604	1975.5886856317197	1018.6176848139684	-41.50607967642933	1979.0497286268685	1017.0413845093269	-38.33795138981388	1948.812372821281	1024.2485270568231	-48.89215928132665	1963.0307087481438	1014.4778072486703	-44.09661600491813	1974.563456481705	1005.8671932657209	-38.037442141168	1980.943910833806	1001.7402243224561	-33.53457450446002	1984.787251127436	999.738318008279	-29.94765863291918	1949.9877251771018	1017.9612247663321	-46.194519962733644	1963.7456595590093	1003.7791525270375	-39.62057307628804	1974.0220769583018	995.0750926731794	-33.819144455097195	1980.2957148906055	990.4575566317616	-29.19949946336196	1983.9659034564565	988.2735250931989	-25.695980527217817	1950.96760550382	1010.7719886955156	-42.98786495363698	1964.1891717801452	993.3675543941313	-35.05569317408877	1972.7083018475917	984.5888233545506	-29.627012430019818	1977.4246784751206	980.3457761590012	-25.878609180440456	1980.7566444167717	977.9075092969149	-22.557049021775352
198	1.642	2081.203	893.81699	129.612	2100.5968225464735	862.2201593753646	77.46448404903585	2015.8349065473003	456.4337860862988	45.02364869805372	2100.8833022039066	117.86227682321989	-75.10463082473612	2027.1421762961584	19.990957089084116	63.07833344555123	2072.4287178553695	898.6791252471497	195.81927653201623	1962.3500081862678	509.2432760510118	300.8094778796113	1852.0640925605096	93.4588056273902	384.8393232936928	1709.2292203805926	26.80807909304096	279.60689459126377	2038.4054959956989	1017.1082846111979	71.66508783439794	1987.065250770288	1084.4171335466121	24.195571839866133	1928.8960151569368	1149.5033970577222	-26.669058211868403	1866.6539538485629	1203.450920195825	-77.55935764867287	1799.0609933321457	1261.755056474008	-130.01695043745784	1732.6957692556373	1311.8750170144156	-172.65934246384836	1593.5693172314504	1388.7513105287599	-178.350280539839	1825.9092700962078	1236.0812024261234	-124.69987593409206	1838.4198630366188	1211.7477331193156	-155.53490524161847	1914.4282703724025	1087.814795755846	-100.37033610741044	1930.2750992115007	1012.3923782754158	-86.11840443669665	1936.0008636625391	1028.632343370822	-90.63978475851687	1937.8873503295813	1031.5666013299626	-95.66748413098206	1939.3301676072424	1030.2319050947856	-98.14890496097468	1940.6433978938187	1026.2293434602195	-99.34509415859014	1937.5334179263007	1018.4600755352426	-87.06306284658547	1946.7463987808862	1013.2659595305269	-86.17768672263168	1950.248963985732	1007.2618329279065	-87.35428520401388	1950.0098532474829	1005.3722634717051	-89.96927325123112	1948.1818297765012	1005.0515619975371	-93.4041768022382	1937.4255433323542	1009.3393715719866	-84.40522433555763	1946.354083743253	999.3404759192989	-82.10352515597941	1950.1283280950072	991.599180410869	-83.04183752008517	1949.816925430692	988.7486435840628	-86.03089641235646	1947.8055925436454	988.1202260217779	-89.70869115173991	1937.146436547498	1003.0292831505772	-82.52501413831013	1945.0001566966218	988.5940197572594	-78.75678890990208	1948.2265659069901	980.6465460837248	-79.22530767236199	1947.892611992036	977.2596322704713	-81.9229860919327	1945.985528125231	976.3667420921317	-85.29313544674304	1936.3040846428696	995.8980123980375	-80.5809218909823	1943.0992322218503	978.2638437190502	-75.84186914324913	1945.5496826599447	970.0903822911241	-75.6886856001498	1945.2416841838797	966.7446819265577	-77.40080215246414	1943.5152559271833	965.4499994772262	-80.23911845891784	1816.857464209372	1248.020099144633	-99.9672022084289	1809.0562148872125	1246.9353208164662	-57.86363268586515	1889.7825137239342	1116.1416820911722	-42.828939172303116	1937.6483373313392	1026.5768545374774	-43.93427884083085	1940.1244336384536	1042.7526640727792	-51.61081359190998	1948.3271491729552	1044.2421844278156	-49.63744007774316	1954.9623971105664	1041.9572035423216	-46.7627133080923	1961.2834155717312	1037.210186389889	-43.08256247197304	1943.4495547746724	1032.9350300890744	-47.52688817650788	1956.6496196136704	1027.6971309424719	-44.894213069767645	1966.959012481521	1020.8057163531944	-39.9076901182179	1972.2089752271822	1017.8521394443334	-36.5026488889815	1975.7723299242684	1016.305140484769	-33.47861053245266	1945.5536031856518	1023.9269576492122	-43.38755351002685	1959.5662983660825	1013.946527799135	-38.5816423636853	1971.0521039884159	1005.2509643597115	-32.59877891330523	1977.4993373064663	1001.123421184749	-28.23083376571227	1981.4533976840466	999.1564561164851	-24.795649895038338	1946.7005112760257	1017.7066208877161	-40.551985305225706	1960.246246256778	1003.3923119911193	-33.8469414644527	1970.4766991322836	994.6271983426217	-28.0860417954673	1976.8120699088204	990.0160076399011	-23.58273924170995	1980.5850842990737	987.86810054411	-20.2153424532858	1947.6616176820637	1010.6087177413417	-37.18919235557141	1960.6732495721524	993.1364297310356	-29.038169298987786	1969.1486173632886	984.3296601131302	-23.601980873495727	1973.9066519367775	980.1013300582537	-19.919102064575725	1977.3277683374831	977.7008660759685	-16.706995551436453
199	1.65	2081.203	893.81699	129.612	2099.9879436007527	861.9906647101361	77.28998730131146	2015.9010795185934	456.0995315549666	44.71758422038487	2102.1131238799235	118.20794307783076	-76.9959015773337	2029.1917091444468	20.02347414086209	61.5698033834798	2073.086917447083	898.923095886514	195.9782726081624	1962.8159853835534	509.47052167769857	300.67117351349475	1852.749987219311	93.25421882294339	383.32826073407466	1709.659804697128	26.77756870099985	278.3411034807804	2038.2503224449713	1017.0506992421966	71.68176397528029	1986.827371166573	1084.3207317006286	24.257751174036606	1928.5993345297084	1149.4029866970252	-26.533534832918193	1866.3277411184845	1203.4182065386594	-77.30588019379368	1798.717135853601	1261.7907829931207	-129.65492309323912	1732.442876885233	1312.0549664678028	-172.27286567431398	1593.3169511585102	1388.9389813876862	-177.77865302677486	1825.2809926003888	1235.755238899696	-124.36012384728127	1836.6241932201303	1210.2734408978458	-154.70945843553508	1913.0912241236786	1085.8285554129686	-100.22382551540537	1926.1392817533215	1010.0288419247468	-83.33496601071413	1931.8222088800153	1026.1252975683608	-87.7867438567696	1933.6556727529849	1028.8967763122089	-92.49358064387476	1935.0296668284311	1027.4528552068862	-94.72265617331581	1936.2582322975527	1023.3627750336293	-95.68374805637639	1933.225294523292	1015.9555235808814	-84.11412395864124	1942.1051239166395	1010.5575972651271	-82.80752095119752	1945.4356437689003	1004.4071580305821	-83.61565419133207	1945.1742349970532	1002.4366186727646	-86.01644763186225	1943.3848610765858	1002.0556322637091	-89.28409951533062	1933.0451001288304	1006.8529465157584	-81.38875365181391	1941.6095570250613	996.6650672030505	-78.63969083367601	1945.1876828164832	988.7671664673228	-79.16829436419353	1944.8453537977205	985.8203997810809	-81.89527510731348	1942.8743519025504	985.1267311414903	-85.38828501143027	1932.7225186416508	1000.5608980088947	-79.47206837829134	1940.2096318053693	985.9720199492025	-75.27270097005409	1943.2571146901307	977.8914602194748	-75.37700548188697	1942.8890836695975	974.4135388979377	-77.81811145644285	1941.0179161064696	973.4601559917037	-81.0127288403255	1931.846661945236	993.4560726763627	-77.49426910340426	1938.2818302280828	975.6973535784962	-72.34050769599384	1940.5781461797333	967.4233106034703	-71.88646471050042	1940.2400453195012	964.0141318094628	-73.40697408333392	1938.5424052154735	962.6675280718681	-76.08723215084258	1816.8067211933471	1248.3847052513624	-99.63635360450377	1810.1873952197689	1248.8008555010076	-57.59222468413156	1888.8955002687057	1116.75358265555	-40.52397778835309	1931.480216245185	1025.647601913092	-36.720789657732354	1933.725984380408	1041.6793330402459	-44.51165751746586	1941.6443775585858	1043.0567277528503	-42.73172174991007	1948.0665013561045	1040.7005505021489	-39.949280994654444	1954.1969065907178	1035.9000773978064	-36.30977570263884	1936.971649316892	1031.8697584953056	-40.26489395539258	1949.6599525200888	1026.46441407553	-37.492815184573274	1959.6351445007645	1019.474803236414	-32.522831838719135	1964.7414079232108	1016.4776159450612	-29.235774122612195	1968.2290362155622	1014.90628486819	-26.382038160177995	1939.0534120521986	1022.887131441526	-36.020429764409194	1952.554899239687	1012.7571369921357	-31.021653636374012	1963.6747720662238	1003.9583480081956	-25.0435562605907	1969.9480320146936	999.780072527647	-20.811582121598875	1973.8189466429428	997.7874002782289	-17.559647545756906	1940.1972179168845	1016.6888725592867	-33.11268709554691	1953.2808679425912	1002.2591797432101	-26.167874472614997	1963.1919035352857	993.4083403338113	-20.397882002652047	1969.3592164418792	988.7504715929844	-16.018697711978533	1973.0539308600394	986.5794587239386	-12.82026277139528	1941.1729039989411	1009.6226386142102	-29.682231100654207	1953.7681193022622	992.0634047076574	-21.264644426155527	1961.9889942516702	983.1951214809545	-15.80155721803483	1966.6250676803534	978.9361939594503	-12.19972141685849	1969.9771840618669	976.5172495347276	-9.13182620943876
